<svg xmlns="http://www.w3.org/2000/svg" width="91.497" height="90.074" viewBox="0 0 91.497 90.074">
  <g id="Group_172" data-name="Group 172" transform="translate(-714 -2167)">
    <g id="Group_16" data-name="Group 16" transform="translate(714 2167)">
      <path id="Path_95" data-name="Path 95" d="M828.922,343.362c0,.977.006,1.819,0,2.66-.011,1.254-.583,1.836-1.827,1.843-1.784.01-3.568.005-5.351.008a2.172,2.172,0,0,0-.258.041v2.965c1.311,0,2.643,0,3.976,0,1.418,0,1.954.553,1.958,2,0,.282.018.565,0,.845a2.463,2.463,0,0,0,1.242,2.724A4.152,4.152,0,0,1,830,361.776a4.486,4.486,0,0,1-8.566-1.591,4.382,4.382,0,0,1,2-4c1.1-.764,1.117-.741.886-2.307-.947,0-1.911-.032-2.872.006-2.722.109-3.155-.29-3.038-3.089.039-.933.006-1.868.006-2.865h-2.96v28.538h1.206c3.161,0,6.322-.007,9.482,0,2.462.006,4.212,1.321,4.545,3.692a6.828,6.828,0,0,1-.546,2.863c-.146.45-.275.711.059,1.146a4.234,4.234,0,0,1,.446,4.822,4.315,4.315,0,0,1-4.1,2.453q-12.675-.012-25.349,0a4.491,4.491,0,0,1-3.6-7.238.848.848,0,0,0,.057-1.135,4.271,4.271,0,0,1,.738-5.4,1.36,1.36,0,0,0,.327-1.011c-.542-3.322-2.308-6.095-4.172-8.779a80.843,80.843,0,0,1-8.57-14.561,62.174,62.174,0,0,1-4.9-17.738c-1.327-12.845,4.781-24.128,16.24-30.186a32.891,32.891,0,0,1,12.331-3.734c1.242-.119,2.49-.195,3.736-.271,1.422-.087,2.021.48,2.022,1.9q0,11.219,0,22.439v1.058h5.933a4.4,4.4,0,0,0,.079-.6c.006-2.159.025-4.319-.02-6.478a1.252,1.252,0,0,0-.513-.907,4.516,4.516,0,0,1-2.265-5.317,4.5,4.5,0,0,1,8.782.8,4.5,4.5,0,0,1-2.362,4.434,1,1,0,0,0-.632,1.062c.025,2.311.011,4.621.011,7.052.925,0,1.79-.006,2.654,0,1.257.01,1.839.582,1.851,1.819.008.844,0,1.689,0,2.61h4.51c0-1.46.028-2.949-.032-4.436-.009-.215-.415-.457-.681-.612a4.489,4.489,0,1,1,6.527-5.13,4.391,4.391,0,0,1-2.127,5.1,1.122,1.122,0,0,0-.7,1.214c.032,1.658.014,3.317.01,4.976,0,1.417-.553,1.954-2,1.957-1.807,0-3.613,0-5.466,0v6.016h1.358c2.378,0,4.757-.012,7.135.01a1,1,0,0,0,1.071-.618,4.43,4.43,0,0,1,5.336-2.162,4.6,4.6,0,0,1,3.075,4.736,4.557,4.557,0,0,1-4.167,4.015,4.452,4.452,0,0,1-4.271-2.352c-.151-.251-.435-.6-.662-.6C834.908,343.348,831.972,343.362,828.922,343.362Zm-16.56,16.477a5.433,5.433,0,0,0-.566-.118c-1.438-.141-1.766-.435-2.022-1.82a3.046,3.046,0,0,0-.2-.9c-.173-.313-.429-.717-.721-.79a1.48,1.48,0,0,0-1.023.346,4.9,4.9,0,0,0-.806.909,1.612,1.612,0,0,1-2.233.473c-.955-.523-1.944-.991-2.864-1.569-2.47-1.553-2.494-1.684-1.564-4.155a.346.346,0,0,0,.033-.183c-.068-.294-.06-.683-.247-.852a1.345,1.345,0,0,0-.932-.276,4.355,4.355,0,0,0-1.241.375,1.646,1.646,0,0,1-2.259-.708c-.839-1.384-1.634-2.794-2.428-4.2a1.509,1.509,0,0,1,.409-2.013c.392-.359.823-.677,1.2-1.053a.97.97,0,0,0-.455-1.6c-.453-.107-.922-.148-1.377-.25a1.618,1.618,0,0,1-1.5-1.819c-.029-1.524,0-3.049-.01-4.573a1.634,1.634,0,0,1,1.446-1.77,8.256,8.256,0,0,0,1.274-.266c.306-.121.7-.368.775-.634a1.416,1.416,0,0,0-.265-1.044,6.634,6.634,0,0,0-1.044-.936,1.561,1.561,0,0,1-.446-2.086c.528-.989,1.005-2.01,1.6-2.955,1.485-2.35,1.619-2.539,4.158-1.56a.341.341,0,0,0,.182.034c.3-.071.685-.066.855-.255a1.34,1.34,0,0,0,.27-.931,6.349,6.349,0,0,0-.37-1.244c-.365-1.167-.24-1.606.787-2.3.929-.627,1.875-1.24,2.858-1.778,2.251-1.231,2.343-1.176,4.085.718a1.419,1.419,0,0,0,1.15.438,1.466,1.466,0,0,0,.71-.994c.5-2.2.476-2.207,2.615-2.569.054-.009.1-.071.16-.117V304.343c-1.04.111-2.028.193-3.009.326a29.586,29.586,0,0,0-19.269,10.256,24.8,24.8,0,0,0-6.183,16.444,40.916,40.916,0,0,0,.742,7.616,60.964,60.964,0,0,0,9.384,22.893c3.09,4.58,6.657,8.9,7.774,14.534h10.567Zm-.007-9.036A13.567,13.567,0,0,1,800.443,337.4a13,13,0,0,1,3.331-8.908,13.589,13.589,0,0,1,8.63-4.558V319.39a2.174,2.174,0,0,1-2.175,1.857,7.714,7.714,0,0,0-1.438.389c-1.31.4-1.651.312-2.517-.713a5.386,5.386,0,0,0-.685-.767.741.741,0,0,0-.624-.151c-.679.352-1.322.77-2.105,1.24,1.85,2.379.116,3.64-1.293,5.174-1.375,1.5-2.571.206-3.867.1-.107.143-.225.287-.327.441-1.124,1.7-1.133,1.71.376,3.028a1.73,1.73,0,0,1,.56,1.931c-.2.718-.409,1.433-.574,2.158a1.812,1.812,0,0,1-1.683,1.6,13.8,13.8,0,0,0-1.682.4c0,.3,0,.487,0,.674-.017,1.885-.017,1.884,1.877,2.31a1.624,1.624,0,0,1,1.4,1.32c.143.7.327,1.391.532,2.075.392,1.305.3,1.645-.727,2.515a5,5,0,0,0-.757.7.746.746,0,0,0-.143.627c.349.679.766,1.323,1.1,1.879,1.3-.06,2.346-1.3,3.563-.188,2.632,2.4,2.635,2.4,1.847,5.572.167.118.34.25.522.368,1.636,1.06,1.647,1.069,2.947-.416a1.714,1.714,0,0,1,1.929-.562,11.85,11.85,0,0,0,1.787.518c1.152.145,1.938.614,2.112,1.851Zm3.114-20.963v14.953h10.456V329.88c-.247-.018-.4-.038-.546-.038C822.1,329.841,818.816,329.841,815.468,329.841Zm-3.1-2.812a10.347,10.347,0,0,0-8.968,11.219c.437,5.726,5.4,9.34,8.968,9.367ZM814,385.374h-7.131c-1.877,0-3.754-.017-5.63.012a1.512,1.512,0,0,0-1.6,1.82c.127.849.77,1.276,1.976,1.277q12.292.005,24.584,0a5.332,5.332,0,0,0,.655-.028,1.382,1.382,0,0,0,1.323-1.427c.06-1.043-.579-1.645-1.79-1.649C822.254,385.368,818.126,385.375,814,385.374Zm-.044-5.951H813.3c-3.911,0-7.823-.006-11.734,0a1.422,1.422,0,0,0-1.556,1.287,1.6,1.6,0,0,0,1.412,1.69,4.01,4.01,0,0,0,.563.011q11.922,0,23.844,0c1.293,0,2.006-.581,1.977-1.594-.026-.938-.657-1.4-1.926-1.4Q819.914,379.422,813.953,379.423Zm10.469-64.634a1.505,1.505,0,1,0-1.5,1.537A1.467,1.467,0,0,0,824.422,314.789Zm12.018,7.534a1.506,1.506,0,1,0-1.518,1.514A1.464,1.464,0,0,0,836.439,322.323Zm7.511,19.558a1.506,1.506,0,1,0-1.547,1.486A1.464,1.464,0,0,0,843.951,341.881Zm-16.524,18.082a1.506,1.506,0,1,0-1.6,1.431A1.469,1.469,0,0,0,827.426,359.963Z" transform="translate(-768.905 -301.371)" fill="#ec7520"/>
      <path id="Path_96" data-name="Path 96" d="M1172.589,304.262v-2.948h2.972v2.948l.03-.027h-3.032Z" transform="translate(-1087.014 -301.314)" fill="#ec7520"/>
      <path id="Path_97" data-name="Path 97" d="M1159.953,319.869h-2.948v-2.975h2.951l-.03-.027V319.9Z" transform="translate(-1074.381 -313.946)" fill="#ec7520"/>
      <path id="Path_98" data-name="Path 98" d="M1188.543,316.894h2.95v2.975h-2.947l.027.03v-3.032Z" transform="translate(-1099.996 -313.946)" fill="#ec7520"/>
      <path id="Path_99" data-name="Path 99" d="M1175.563,332.85v2.95h-2.977V332.85l-.027.03h3.032Z" transform="translate(-1087.014 -326.927)" fill="#ec7520"/>
      <path id="Path_100" data-name="Path 100" d="M732.645,736.208V733.26h2.972v2.948l.03-.027h-3.032Z" transform="translate(-729.694 -652.138)" fill="#ec7520"/>
      <path id="Path_101" data-name="Path 101" d="M720.008,751.815H717.06V748.84h2.951l-.03-.027v3.032Z" transform="translate(-717.06 -664.77)" fill="#ec7520"/>
      <path id="Path_102" data-name="Path 102" d="M748.6,748.84h2.95v2.975H748.6l.027.03v-3.032Z" transform="translate(-742.675 -664.77)" fill="#ec7520"/>
      <path id="Path_103" data-name="Path 103" d="M735.619,764.8v2.95h-2.977V764.8l-.027.03h3.032Z" transform="translate(-729.694 -677.752)" fill="#ec7520"/>
      <path id="Path_104" data-name="Path 104" d="M1027.777,666.978l2.571,1.439-1.214,2.533-2.748-1.086Z" transform="translate(-968.294 -598.304)" fill="#ec7520"/>
      <path id="Path_105" data-name="Path 105" d="M1086.488,368.972l2.317-1.822,1.836,2.553-2.488,1.593Z" transform="translate(-1017.107 -354.786)" fill="#ec7520"/>
      <path id="Path_106" data-name="Path 106" d="M1042.677,641.437l1.725-2.532,2.413,1.676-1.657,2.457Z" transform="translate(-981.524 -575.504)" fill="#ec7520"/>
      <path id="Path_107" data-name="Path 107" d="M1061.289,614.793l1.646-2.435,2.489,1.551-1.7,2.564Z" transform="translate(-996.641 -553.942)" fill="#ec7520"/>
      <path id="Path_108" data-name="Path 108" d="M980.224,305.8l.338-2.933,3.1.555-.633,2.859Z" transform="translate(-930.8 -302.573)" fill="#ec7520"/>
      <path id="Path_109" data-name="Path 109" d="M1039.124,326.2l1.4-2.594,2.691,1.611-1.64,2.458Z" transform="translate(-978.639 -319.423)" fill="#ec7520"/>
      <path id="Path_110" data-name="Path 110" d="M1066.719,342.716l2.274,2.057-2.194,2.006-1.972-1.815Z" transform="translate(-999.515 -334.94)" fill="#ec7520"/>
      <path id="Path_111" data-name="Path 111" d="M1104.07,400l-1.107-2.62,2.648-1.282,1.238,2.9Z" transform="translate(-1030.488 -378.295)" fill="#ec7520"/>
      <path id="Path_112" data-name="Path 112" d="M1094.484,558.955l-2.718-1.148,1.095-2.729,2.739,1.02Z" transform="translate(-1021.394 -507.421)" fill="#ec7520"/>
      <path id="Path_113" data-name="Path 113" d="M1011.412,310.29l2.948,1.106c-.348.8-.624,1.524-.983,2.2a.773.773,0,0,1-.676.3c-.708-.2-1.389-.505-2.178-.807Z" transform="translate(-955.409 -308.604)" fill="#ec7520"/>
      <path id="Path_114" data-name="Path 114" d="M1080.627,588.4l-2.608-1.379,1.331-2.627,2.645,1.262Z" transform="translate(-1010.229 -531.229)" fill="#ec7520"/>
      <path id="Path_115" data-name="Path 115" d="M1116.549,428.538l.534,3.059-2.885.409c-.154-.8-.334-1.576-.428-2.361a.725.725,0,0,1,.4-.575C1114.907,428.856,1115.669,428.726,1116.549,428.538Z" transform="translate(-1039.265 -404.645)" fill="#ec7520"/>
      <path id="Path_116" data-name="Path 116" d="M1116.827,465.737v-2.783h2.978c-.047.951-.1,1.92-.151,3.032Z" transform="translate(-1041.749 -432.597)" fill="#ec7520"/>
    </g>
  </g>
</svg>
