<svg xmlns="http://www.w3.org/2000/svg" width="88" height="87.963" viewBox="0 0 88 87.963">
  <g id="Group_12" data-name="Group 12" transform="translate(-704.806 -285.202)">
    <path id="Path_11" data-name="Path 11" d="M775.927,312.63a25.426,25.426,0,0,1,8.782-20.936,24.44,24.44,0,0,1,17.5-6.48,25.993,25.993,0,0,1,24.929,27.38c.64.131,1.228.213,1.793.373a7.656,7.656,0,0,1,5.6,7.457,33.265,33.265,0,0,1-.178,4.451,7.463,7.463,0,0,1-6.433,6.009c-.57.053-.758.237-.784.829a20.562,20.562,0,0,1-17.312,19.215,32.287,32.287,0,0,1-4.626.217,1.742,1.742,0,0,1-1.752-1.745,1.914,1.914,0,0,0-2.89-1.759,1.941,1.941,0,0,0-.886,2.143,1.552,1.552,0,0,0,1.561,1.42c1.343.094,2.014.647,2.067,1.7a1.664,1.664,0,0,1-1.755,1.871,5.485,5.485,0,0,1-4.963-3.387,4.675,4.675,0,0,1,.908-5.473,5.171,5.171,0,0,1,8.667.774,1.6,1.6,0,0,0,1.7.9,16.31,16.31,0,0,0,15.506-13.569,13.982,13.982,0,0,0,.207-2.475c.023-3.152.013-6.3.007-9.457a1.688,1.688,0,0,1,1.036-1.8,2.336,2.336,0,0,1,1.744.137,2.1,2.1,0,0,1,.768,1.48c.1,1.512.034,3.035.037,4.554,0,.278.025.556.037.823a3.1,3.1,0,0,0,3.645-2.839,22.567,22.567,0,0,0,.022-5.137c-.217-1.983-1.591-3-3.623-3.033-.573-.01-1.146,0-1.72,0a1.8,1.8,0,0,1-1.938-1.916c-.022-1.375,0-2.751-.006-4.127a21.6,21.6,0,0,0-16.479-20.768c-7.8-1.786-14.825-.192-20.774,5.273a20.4,20.4,0,0,0-6.616,13.283c-.212,2.043-.173,4.115-.183,6.174-.024,4.815-.007,9.629-.008,14.444,0,1.7-.607,2.24-2.327,2.33-3.673.192-6.413-1.227-7.974-4.6a8.268,8.268,0,0,1-.635-2.893,19.265,19.265,0,0,1,.066-4.2,7.623,7.623,0,0,1,6.724-6.565C775.527,312.681,775.692,312.663,775.927,312.63Zm0,14.657c0-3.53.008-7.012-.025-10.493,0-.169-.372-.486-.559-.478a3.028,3.028,0,0,0-3.021,2.64,28.284,28.284,0,0,0-.009,5.7C772.507,326.474,773.938,327.4,775.927,327.288Z" transform="translate(-52.734)" fill="#ec7520"/>
    <path id="Path_12" data-name="Path 12" d="M783.427,419.643c2.453-2.456,4.9-4.874,7.3-7.329a2.933,2.933,0,0,1,2.276-.939q27.039.033,54.078-.013a5.772,5.772,0,0,0,2.67-.694c1.22-.674,1.457-1.967,1.457-3.278q0-15.475,0-30.951,0-9.887,0-19.774c0-2.76-1.345-4.1-4.113-4.1-2.866,0-5.731,0-8.6,0a1.719,1.719,0,0,1-1.954-1.775,1.78,1.78,0,0,1,1.967-1.8c3.009-.013,6.019-.038,9.027,0a7.7,7.7,0,0,1,7.25,7.512q.01,20.462,0,40.924,0,4.9,0,9.8a7.679,7.679,0,0,1-7.718,7.743q-26.48,0-52.96-.015a2.085,2.085,0,0,0-1.638.689c-3.12,3.162-6.274,6.289-9.411,9.434-.636.638-1.294,1.15-2.266.738s-1.14-1.217-1.131-2.177c.029-3.41.009-6.821.013-10.231,0-1.261.631-1.993,1.715-2.016a1.808,1.808,0,0,1,1.862,1.994c.02,2.034.021,4.068.032,6.1C783.29,419.509,783.323,419.528,783.427,419.643Z" transform="translate(-61.988 -52.802)" fill="#ec7520"/>
    <path id="Path_13" data-name="Path 13" d="M704.806,382.019q0-12.633,0-25.265a7.679,7.679,0,0,1,7.74-7.715c2.836,0,5.672-.009,8.508,0a1.784,1.784,0,0,1,1.992,1.94,1.68,1.68,0,0,1-1.828,1.634c-2.922.01-5.844,0-8.765,0-2.7,0-4.065,1.359-4.065,4.06q0,25.351,0,50.7c0,2.617,1.2,3.9,3.8,4.064a1.725,1.725,0,0,1,1.692,1.949,1.854,1.854,0,0,1-2.052,1.625,7.824,7.824,0,0,1-6.853-6.036,11.035,11.035,0,0,1-.166-1.873Q704.8,394.566,704.806,382.019Z" transform="translate(0 -52.856)" fill="#ec7520"/>
    <path id="Path_14" data-name="Path 14" d="M872.747,331.317a14.413,14.413,0,0,0-14.379,11.417,28.364,28.364,0,0,0-.38,3.228c-.117,1.206-.857,1.986-1.862,1.92a1.8,1.8,0,0,1-1.668-2.092c.292-7.207,3.772-12.512,10-15.889,11.139-6.037,23.942,1.446,26.252,12.946a18.154,18.154,0,0,1,.262,3.157,1.752,1.752,0,1,1-3.5.086,15.224,15.224,0,0,0-3.2-9.306,14.247,14.247,0,0,0-8.891-5.209C874.52,331.416,873.628,331.4,872.747,331.317Z" transform="translate(-123.914 -35.239)" fill="#ec7520"/>
    <path id="Path_15" data-name="Path 15" d="M911.522,566.482h-3.451v-3.391h3.451Z" transform="translate(-168.309 -230.1)" fill="#ec7520"/>
    <path id="Path_16" data-name="Path 16" d="M993.147,562.964h3.46v3.4h-3.46Z" transform="translate(-238.755 -229.995)" fill="#ec7520"/>
    <path id="Path_17" data-name="Path 17" d="M954.308,566.645H950.98v-3.328h3.328Z" transform="translate(-203.839 -230.287)" fill="#ec7520"/>
  </g>
</svg>
